<svg xmlns="http://www.w3.org/2000/svg" viewBox="0 0 24 24" role="img" aria-label=">=B0:B5">
  <path fill="#0077FF" d="M12.785 16.241s.288-.032.436-.194c.136-.148.132-.427.132-.653 0-.352.005-2.234.005-2.234s0-.58.264-.664c.264-.084.604.28 1.36 1.004.864.824 1.512 1.556 1.512 1.556s.132.092.288.056c.06-.016.04-.092.04-.092l-.004-.06s-.2-1.42-.092-1.628c.072-.136.248-.148.248-.148h1.104s.604-.04.672-.28c.064-.224-.148-.672-.68-1.188-.576-.564-1.004-.888-.004-1.512.72-.472 1.604-1.004 1.772-1.288.16-.272.012-.416-.2-.416h-1.58s-.116-.016-.2.072c-.084.084-.648.752-.88 1.004-.672.712-.944.748-1.052.628-.26-.292-.196-.756-.196-1.164 0-1.264.192-1.788-.376-1.924-.188-.044-.328-.076-.812-.08-.62-.008-1.144.004-1.44.152-.2.1-.352.324-.26.336.116.016.376.072.516.264.18.244.172.792.172.792s.104 1.532-.24 1.724c-.236.128-.56-.132-1.256-1.316-.356-.612-.624-1.288-.624-1.288s-.052-.128-.144-.196c-.112-.084-.268-.112-.268-.112h-1.58s-.236.008-.324.112c-.076.088.006.272.006.272s1.24 2.936 2.644 4.416c1.288 1.356 2.756 1.268 2.756 1.268h.656z"/>
</svg>
